<svg id="Flat" height="512" viewBox="0 0 512 512" width="512" xmlns="http://www.w3.org/2000/svg"><path d="m208 328h96a128 128 0 0 1 128 128v32a0 0 0 0 1 0 0h-352a0 0 0 0 1 0 0v-32a128 128 0 0 1 128-128z" fill="#6ed2f0"/><path d="m160 352h80a0 0 0 0 1 0 0v32a32 32 0 0 1 -32 32h-16a32 32 0 0 1 -32-32v-32a0 0 0 0 1 0 0z" fill="#60b8d1"/><path d="m272 352h80a0 0 0 0 1 0 0v32a32 32 0 0 1 -32 32h-16a32 32 0 0 1 -32-32v-32a0 0 0 0 1 0 0z" fill="#60b8d1"/><circle cx="256" cy="440" fill="#e9eef2" r="16"/><circle cx="80" cy="224" fill="#f0c6a4" r="56"/><circle cx="432" cy="224" fill="#f0c6a4" r="56"/><g fill="#c2a186"><path d="m88 224h-32a8 8 0 0 1 0-16h32a8 8 0 0 1 0 16z"/><path d="m456 224h-32a8 8 0 0 1 0-16h32a8 8 0 0 1 0 16z"/><path d="m72 248a8 8 0 0 1 -5.657-13.657l16-16a8 8 0 0 1 11.314 11.314l-16 16a7.976 7.976 0 0 1 -5.657 2.343z"/><path d="m440 248a7.976 7.976 0 0 1 -5.657-2.343l-16-16a8 8 0 0 1 11.314-11.314l16 16a8 8 0 0 1 -5.657 13.657z"/></g><circle cx="256" cy="224" fill="#f7cca9" r="168"/><circle cx="184" cy="232" fill="#6a7073" r="16"/><circle cx="328" cy="232" fill="#6a7073" r="16"/><g fill="#ffb632"><path d="m208 72a8 8 0 0 1 -8-8v-32a8 8 0 0 1 16 0v32a8 8 0 0 1 -8 8z"/><path d="m224 104a8 8 0 0 1 -8-8v-32a8 8 0 0 1 16 0v32a8 8 0 0 1 -8 8z"/><path d="m256 104a8 8 0 0 1 -8-8v-32a8 8 0 0 1 16 0v32a8 8 0 0 1 -8 8z"/><path d="m288 104a8 8 0 0 1 -8-8v-32a8 8 0 0 1 16 0v32a8 8 0 0 1 -8 8z"/><path d="m240 72a8 8 0 0 1 -8-8v-32a8 8 0 0 1 16 0v32a8 8 0 0 1 -8 8z"/><path d="m272 72a8 8 0 0 1 -8-8v-32a8 8 0 0 1 16 0v32a8 8 0 0 1 -8 8z"/><path d="m304 72a8 8 0 0 1 -8-8v-32a8 8 0 0 1 16 0v32a8 8 0 0 1 -8 8z"/></g><circle cx="144" cy="264" fill="#ff9494" r="32"/><circle cx="368" cy="264" fill="#ff9494" r="32"/><path d="m256 296a32.036 32.036 0 0 1 -32-32 8 8 0 0 1 16 0 16 16 0 0 0 32 0 8 8 0 0 1 16 0 32.036 32.036 0 0 1 -32 32z" fill="#c2a186"/></svg>