<svg width="74" height="74" viewBox="0 0 74 74" fill="none" xmlns="http://www.w3.org/2000/svg">
<g clip-path="url(#clip0)">
<path d="M72.7655 38.9443C68.7908 26.156 56.1754 17.4289 41.0541 17.1697V2.22128C41.0541 1.53002 40.4493 0.925171 39.758 0.925171C39.4988 0.925171 39.2396 1.01158 38.9804 1.18439L0.529243 29.0075C-0.0756062 29.4395 -0.162013 30.2171 0.270022 30.822C0.356429 30.9084 0.442836 30.9948 0.529243 31.0812L38.9804 58.7315C39.5852 59.1635 40.3629 58.9907 40.7949 58.4722C40.9677 58.213 41.0541 57.9538 41.0541 57.6946V42.8326C50.3861 42.8326 58.2491 47.2393 61.0141 53.8927C63.3471 59.5955 61.4462 65.7304 55.9161 70.8284C55.3977 71.3469 55.3113 72.1245 55.8297 72.643C56.0889 72.9022 56.4346 73.075 56.7802 73.075H57.8171C58.0763 73.075 58.3355 72.9886 58.5083 72.8158C71.2102 64.4343 76.6538 51.3869 72.7655 38.9443Z" fill="#FF6262"/>
</g>
<defs>
<clipPath id="clip0">
<rect width="74" height="74" fill="white"/>
</clipPath>
</defs>
</svg>
