<svg width="64" height="64" viewBox="0 0 64 64" fill="none" xmlns="http://www.w3.org/2000/svg">
<g clip-path="url(#clip0)">
<path d="M33.153 13.638C30.654 9.736 41.038 4.365 34.469 0.226002C32.961 -0.717998 31.301 1.546 32.897 2.548C36.524 4.827 26.983 9.177 30.898 15.293C31.897 16.846 34.15 15.197 33.153 13.638Z" fill="white"/>
<path d="M40.464 13.638C37.957 9.72401 48.358 4.37001 41.778 0.226015C40.976 -0.277985 39.869 0.185015 39.616 1.06701C38.964 3.34101 43.191 1.82301 39.481 6.90201C37.486 9.63101 36.387 12.453 38.206 15.294C39.219 16.855 41.448 15.178 40.464 13.638Z" fill="white"/>
<path d="M25.802 13.638C23.294 9.721 33.706 4.374 27.117 0.226003C25.614 -0.719997 23.947 1.545 25.545 2.548C29.146 4.811 19.653 9.213 23.546 15.293C24.549 16.846 26.796 15.2 25.802 13.638Z" fill="white"/>
<path d="M31.279 33.679C47.008 33.679 55.28 29.668 55.28 26.348C55.28 22.516 44.848 18.859 31.79 19.026C18.708 18.858 8.30101 22.526 8.30101 26.348C8.30101 29.889 17.534 33.679 31.279 33.679ZM31.586 20.992C31.634 20.992 31.682 20.992 31.731 20.994V20.995C31.751 20.995 31.771 20.994 31.791 20.994C31.812 20.994 31.831 20.995 31.851 20.995V20.994C31.9 20.993 31.948 20.992 31.996 20.992C41.887 20.992 51.899 22.736 51.899 26.067C51.899 30.367 36.369 31.243 31.851 31.141V31.14C31.851 31.14 31.733 31.14 31.732 31.14V31.141C27.091 31.247 11.686 30.336 11.686 26.067C11.685 22.735 21.695 20.992 31.586 20.992Z" fill="white"/>
<path d="M17.352 28.531L17.432 23.582C14.459 24.345 12.812 25.279 12.812 26.066C12.812 26.847 14.43 27.772 17.352 28.531Z" fill="white"/>
<path d="M24.207 22.463C22.534 22.627 21.029 22.839 19.696 23.088L19.602 29.029C20.934 29.28 22.442 29.497 24.118 29.663L24.207 22.463Z" fill="white"/>
<path d="M30.974 22.127C29.379 22.139 27.876 22.194 26.464 22.284L26.37 29.845C27.78 29.937 29.284 29.993 30.879 30.007L30.974 22.127Z" fill="white"/>
<path d="M55.822 28.463C55.818 28.395 55.8 28.329 55.792 28.261C52.422 33.559 38.519 34.898 31.85 34.8V34.798C31.85 34.798 31.733 34.798 31.731 34.798V34.8C23.224 34.925 10.831 33.04 7.79001 28.261C7.78101 28.329 7.76301 28.395 7.76001 28.463C5.17201 29.029 4.03401 30.223 4.10601 32.259C4.16701 33.983 6.36801 35.474 9.23401 36.322C11.032 40.797 14.363 44.429 18.652 46.828L12.479 61.227C12.11 62.084 12.508 63.081 13.368 63.448C13.584 63.54 13.81 63.585 14.033 63.585C14.689 63.585 15.313 63.201 15.588 62.561L21.714 48.271C27.609 50.557 35.468 50.752 41.87 48.271L47.996 62.561C48.27 63.202 48.894 63.585 49.551 63.585C49.774 63.585 50 63.54 50.216 63.448C51.076 63.081 51.475 62.085 51.106 61.227L44.932 46.828C49.221 44.43 52.551 40.797 54.351 36.322C57.216 35.474 59.416 33.983 59.479 32.259C59.547 30.223 58.41 29.029 55.822 28.463ZM6.93501 32.578C6.88601 31.652 7.02901 31.112 7.85201 30.763C7.96701 31.902 8.19001 32.996 8.47701 34.06C7.55101 33.7 6.96601 33.208 6.93501 32.578ZM55.104 34.06C55.392 32.996 55.615 31.901 55.73 30.763C56.551 31.112 56.695 31.652 56.646 32.578C56.614 33.208 56.029 33.7 55.104 34.06Z" fill="white"/>
<path d="M50.77 26.066C50.77 25.279 49.123 24.344 46.15 23.582L46.229 28.531C49.151 27.772 50.77 26.847 50.77 26.066Z" fill="white"/>
<path d="M43.978 29.028L43.885 23.087C42.551 22.839 41.046 22.626 39.374 22.462L39.463 29.661C41.139 29.496 42.646 29.28 43.978 29.028Z" fill="white"/>
<path d="M37.212 29.845L37.117 22.284C35.705 22.194 34.202 22.139 32.607 22.127L32.703 30.006C34.298 29.993 35.801 29.937 37.212 29.845Z" fill="white"/>
</g>
<defs>
<clipPath id="clip0">
<rect width="63.585" height="63.585" fill="white"/>
</clipPath>
</defs>
</svg>
